#N canvas 26 219 1554 764 10;
#X obj -181 1 knob 32 32 34 700 0 0 velocity empty velocidad_de_nota
0 -8 0 8 -262144 -1 -1 0 1;
#X obj -254 -37 inlet;
#X obj -208 219 r velocity;
#X floatatom -196 240 5 0 0 0 - - -;
#X obj -254 299 noteout 1;
#X floatatom -253 31 5 0 0 0 - - -;
#X msg 1187 -36 Mayor;
#X msg 1187 -4 4 7;
#X obj 1187 29 s acorde;
#X msg 1264 -5 3 7;
#X msg 1264 -36 menor;
#X obj 1264 27 s acorde;
#X obj 1226 183 r acorde;
#X obj 1226 214 unpack f f;
#X obj 1226 244 s nota2;
#X obj 1283 244 s nota3;
#X obj 1390 108 r nota2;
#X obj 1390 128 r nota3;
#X obj 1320 284 + 4;
#X obj 1360 284 + 7;
#X obj 1194 127 s acorde;
#X obj 1271 125 s acorde;
#X msg 1194 62 aument;
#X msg 1271 62 dian;
#X floatatom 1320 311 5 0 0 0 - - -;
#X floatatom 1360 311 5 0 0 0 - - -;
#X msg 1194 94 4 8;
#X msg 1271 93 3 6;
#X obj -254 259 makenote 64 2087;
#X obj -253 153 t b b;
#X floatatom -253 80 5 0 0 0 - - -;
#X obj -253 105 spigot;
#X obj -253 131 bng 15 250 50 0 empty empty empty 17 7 0 10 -262144
-1 -1;
#X msg -253 175 100;
#X obj 50 0 knob 32 32 34 700 0 0 velocity empty velocidad_de_nota
0 -8 0 8 -262144 -1 -1 0 1;
#X obj -23 -38 inlet;
#X floatatom -22 30 5 0 0 0 - - -;
#X floatatom -22 79 5 0 0 0 - - -;
#X obj -22 104 spigot;
#X obj 273 -1 knob 32 32 34 700 0 0 velocity empty velocidad_de_nota
0 -8 0 8 -262144 -1 -1 0 1;
#X obj 200 -39 inlet;
#X obj 246 217 r velocity;
#X floatatom 258 238 5 0 0 0 - - -;
#X floatatom 201 29 5 0 0 0 - - -;
#X obj 200 257 makenote 64 2087;
#X obj 201 151 t b b;
#X floatatom 201 78 5 0 0 0 - - -;
#X obj 201 103 spigot;
#X obj 201 129 bng 15 250 50 0 empty empty empty 17 7 0 10 -262144
-1 -1;
#X msg 201 173 102;
#X obj 200 297 noteout 3;
#X obj 505 -2 knob 32 32 34 700 0 0 velocity empty velocidad_de_nota
0 -8 0 8 -262144 -1 -1 0 1;
#X obj 432 -40 inlet;
#X obj 478 216 r velocity;
#X floatatom 490 237 5 0 0 0 - - -;
#X floatatom 433 28 5 0 0 0 - - -;
#X obj 432 256 makenote 64 2087;
#X obj 433 150 t b b;
#X floatatom 433 77 5 0 0 0 - - -;
#X obj 433 102 spigot;
#X obj 433 128 bng 15 250 50 0 empty empty empty 17 7 0 10 -262144
-1 -1;
#X obj 432 296 noteout 4;
#X obj 727 -3 knob 32 32 34 700 0 0 velocity empty velocidad_de_nota
0 -8 0 8 -262144 -1 -1 0 1;
#X obj 654 -41 inlet;
#X obj 700 215 r velocity;
#X floatatom 712 236 5 0 0 0 - - -;
#X floatatom 655 27 5 0 0 0 - - -;
#X obj 654 255 makenote 64 2087;
#X obj 655 149 t b b;
#X floatatom 655 76 5 0 0 0 - - -;
#X obj 655 101 spigot;
#X obj 655 127 bng 15 250 50 0 empty empty empty 17 7 0 10 -262144
-1 -1;
#X obj 654 295 noteout 5;
#X obj 954 -4 knob 32 32 34 700 0 0 velocity empty velocidad_de_nota
0 -8 0 8 -262144 -1 -1 0 1;
#X obj 881 -42 inlet;
#X obj 927 214 r velocity;
#X floatatom 939 235 5 0 0 0 - - -;
#X floatatom 882 26 5 0 0 0 - - -;
#X obj 881 254 makenote 64 2087;
#X obj 882 148 t b b;
#X floatatom 882 75 5 0 0 0 - - -;
#X obj 882 100 spigot;
#X obj 882 126 bng 15 250 50 0 empty empty empty 17 7 0 10 -262144
-1 -1;
#X obj 881 294 noteout 5;
#X obj -202 146 outlet;
#X obj 256 144 outlet;
#X obj 482 143 outlet;
#X obj 703 142 outlet;
#X obj 929 141 outlet;
#X obj -253 58 expr if($f1>=100 && $f1<350 \, 1 \, 0) \;;
#X obj -22 57 expr if($f1>=100 && $f1<350 \, 1 \, 0) \;;
#X obj 201 56 expr if($f1>=100 && $f1<350 \, 1 \, 0) \;;
#X obj 433 55 expr if($f1>=300 && $f1<950 \, 1 \, 0) \;;
#X obj 654 54 expr if($f1>=400 && $f1<1500 \, 1 \, 0) \;;
#X obj 882 53 expr if($f1>=300 && $f1<1300 \, 1 \, 0) \;;
#X msg 433 172 104;
#X msg 655 171 105;
#X msg 882 170 106;
#X obj 23 218 r velocity;
#X floatatom 35 239 5 0 0 0 - - -;
#X obj -23 258 makenote 64 2087;
#X obj -22 152 t b b;
#X obj -22 130 bng 15 250 50 0 empty empty empty 17 7 0 10 -262144
-1 -1;
#X msg -22 174 101;
#X obj -23 298 noteout 2;
#X obj 30 145 outlet;
#X connect 1 0 0 0;
#X connect 1 0 5 0;
#X connect 2 0 3 0;
#X connect 2 0 28 1;
#X connect 5 0 89 0;
#X connect 6 0 7 0;
#X connect 7 0 8 0;
#X connect 9 0 11 0;
#X connect 10 0 9 0;
#X connect 12 0 13 0;
#X connect 13 0 14 0;
#X connect 13 1 15 0;
#X connect 16 0 18 1;
#X connect 17 0 19 1;
#X connect 18 0 24 0;
#X connect 19 0 25 0;
#X connect 22 0 26 0;
#X connect 23 0 27 0;
#X connect 26 0 20 0;
#X connect 27 0 21 0;
#X connect 28 0 4 0;
#X connect 28 1 4 1;
#X connect 29 0 33 0;
#X connect 30 0 31 1;
#X connect 30 0 31 0;
#X connect 31 0 32 0;
#X connect 32 0 29 0;
#X connect 32 0 84 0;
#X connect 33 0 28 0;
#X connect 35 0 34 0;
#X connect 35 0 36 0;
#X connect 36 0 90 0;
#X connect 37 0 38 1;
#X connect 37 0 38 0;
#X connect 38 0 102 0;
#X connect 40 0 39 0;
#X connect 40 0 43 0;
#X connect 41 0 42 0;
#X connect 41 0 44 1;
#X connect 43 0 91 0;
#X connect 44 0 50 0;
#X connect 44 1 50 1;
#X connect 45 0 49 0;
#X connect 46 0 47 1;
#X connect 46 0 47 0;
#X connect 47 0 48 0;
#X connect 48 0 45 0;
#X connect 48 0 85 0;
#X connect 49 0 44 0;
#X connect 52 0 51 0;
#X connect 52 0 55 0;
#X connect 53 0 54 0;
#X connect 53 0 56 1;
#X connect 55 0 92 0;
#X connect 56 0 61 0;
#X connect 56 1 61 1;
#X connect 57 0 95 0;
#X connect 58 0 59 1;
#X connect 58 0 59 0;
#X connect 59 0 60 0;
#X connect 60 0 57 0;
#X connect 60 0 86 0;
#X connect 63 0 62 0;
#X connect 63 0 66 0;
#X connect 64 0 65 0;
#X connect 64 0 67 1;
#X connect 66 0 93 0;
#X connect 67 0 72 0;
#X connect 67 1 72 1;
#X connect 68 0 96 0;
#X connect 69 0 70 1;
#X connect 69 0 70 0;
#X connect 70 0 71 0;
#X connect 71 0 68 0;
#X connect 71 0 87 0;
#X connect 74 0 73 0;
#X connect 74 0 77 0;
#X connect 75 0 76 0;
#X connect 75 0 78 1;
#X connect 77 0 94 0;
#X connect 78 0 83 0;
#X connect 78 1 83 1;
#X connect 79 0 97 0;
#X connect 80 0 81 1;
#X connect 80 0 81 0;
#X connect 81 0 82 0;
#X connect 82 0 79 0;
#X connect 82 0 88 0;
#X connect 89 0 30 0;
#X connect 90 0 37 0;
#X connect 91 0 46 0;
#X connect 92 0 58 0;
#X connect 93 0 69 0;
#X connect 94 0 80 0;
#X connect 95 0 56 0;
#X connect 96 0 67 0;
#X connect 97 0 78 0;
#X connect 98 0 99 0;
#X connect 98 0 100 1;
#X connect 100 0 104 0;
#X connect 100 1 104 1;
#X connect 101 0 103 0;
#X connect 102 0 101 0;
#X connect 102 0 105 0;
#X connect 103 0 100 0;
