#N canvas -2 22 1254 971 10;
#X obj -224 78 tgl 15 0 empty empty empty 17 7 0 10 -262144 -1 -1 1
1;
#X msg -224 97 \; pd dsp \$1;
#X obj -20 350 *~;
#X obj 34 350 *~;
#X obj -134 1189 dac~ 1 2;
#X obj -142 79 vsl 20 50 0 1 0 0 empty empty empty 0 -9 0 10 -262144
-1 -1 0 1;
#X obj -402 -77 ctlin;
#X floatatom -402 -46 5 0 0 0 - - -;
#X floatatom -333 -45 5 0 0 0 - - -;
#X obj -402 15 list prepend;
#X obj -231 32 route 13;
#X floatatom -231 165 5 0 0 0 - - -;
#X text -232 148 Master Level;
#X obj -88 168 s master;
#X obj -142 29 r master;
#X floatatom -231 191 5 0 0 0 - - -;
#X obj -89 192 s m1;
#X text -248 190 m1;
#X floatatom -231 218 5 0 0 0 - - -;
#X text -248 217 m2;
#X obj -89 219 s m2;
#X obj -402 -13 / 127;
#X floatatom -231 248 5 0 0 0 - - -;
#X text -248 247 m3;
#X obj -89 249 s m3;
#X floatatom -232 278 5 0 0 0 - - -;
#X floatatom -383 189 5 0 0 0 - - -;
#X obj -347 188 s m1ps;
#X floatatom -383 218 5 0 0 0 - - -;
#X obj -347 217 s m2ps;
#X floatatom -383 248 5 0 0 0 - - -;
#X obj -347 247 s m3ps;
#X obj -90 279 s m4;
#X text -249 280 m4;
#X floatatom -383 279 5 0 0 0 - - -;
#X obj -347 278 s m4ps;
#X floatatom -232 308 5 0 0 0 - - -;
#X text -249 310 m5;
#X obj -90 309 s m5;
#X floatatom -383 309 5 0 0 0 - - -;
#X obj -346 308 s m5ps;
#X floatatom -234 397 5 0 0 0 - - -;
#X obj -93 398 s m1reveb;
#N canvas 0 22 450 278 (subpatch) 0;
#X array audiok1 48426 float 2;
#X coords 0 1 48426 -1 200 140 1;
#X restore 125 172 graph;
#X obj 73 3 loadbang;
#X msg 89 62 symbol ruidog1.wav;
#X obj 74 100 mysamplek m1reveb m1ps audiok1 m1;
#X msg 73 35 symbol 1audiochucuruido.wav;
#X obj 367 44 inlet;
#N canvas 0 22 450 278 (subpatch) 0;
#X array audiok2 573434 float 2;
#X coords 0 1 573434 -1 200 140 1 0 0;
#X restore 474 178 graph;
#X obj 423 3 loadbang;
#X msg 439 62 symbol ruidog1.wav;
#X obj 717 44 inlet;
#X floatatom -235 424 5 0 0 0 - - -;
#X obj -412 409 ctlin;
#X floatatom -412 440 5 0 0 0 - - -;
#X floatatom -343 441 5 0 0 0 - - -;
#X obj -412 501 list prepend;
#X obj -93 424 s m2reveb;
#X obj -21 715 *~;
#X obj 27 715 *~;
#N canvas 0 22 450 278 (subpatch) 0;
#X array audiok3 78519 float 2;
#X coords 0 1 78519 -1 200 140 1 0 0;
#X restore 124 546 graph;
#X obj 76 371 loadbang;
#X msg 89 430 symbol ruidog1.wav;
#X obj 368 412 inlet;
#X msg 423 35 symbol 2audiosynthcascade.wav;
#X floatatom -234 453 5 0 0 0 - - -;
#X obj -93 453 s m3reveb;
#N canvas 0 22 450 278 (subpatch) 0;
#X array audiok4 384142 float 2;
#X coords 0 1 384142 -1 200 140 1 0 0;
#X restore 474 547 graph;
#X obj 426 372 loadbang;
#X msg 439 431 symbol ruidog1.wav;
#X obj 718 413 inlet;
#X msg 76 403 symbol 3audioahogo.wav;
#X msg 426 404 symbol 4audiomultiagrh.wav;
#X obj 424 100 mysamplek m2reveb m2ps audiok2 m2;
#X obj 75 468 mysamplek m3reveb m3ps audiok3 m3;
#X obj 425 469 mysamplek m4reveb m4ps audiok4 m4;
#X floatatom -235 486 5 0 0 0 - - -;
#X obj -94 486 s m4reveb;
#N canvas 0 22 450 278 (subpatch) 0;
#X array audiok5 220646 float 2;
#X coords 0 1 220646 -1 200 140 1 0 0;
#X restore 124 909 graph;
#X obj 76 734 loadbang;
#X msg 89 793 symbol ruidog1.wav;
#X obj 368 775 inlet;
#X msg 76 766 symbol 5audiorasquido.wav;
#X obj 75 831 mysamplek m5reveb m5ps audiok5 m5;
#X floatatom -236 516 5 0 0 0 - - -;
#X obj -95 516 s m5reveb;
#N canvas 0 22 450 278 (subpatch) 0;
#X array audiok6 264662 float 2;
#X coords 0 1 264662 -1 200 140 1 0 0;
#X restore 474 908 graph;
#X obj 426 733 loadbang;
#X msg 439 792 symbol ruidog1.wav;
#X obj 718 774 inlet;
#X msg 426 765 symbol 6audioweissesrau.wav;
#X obj 425 830 mysamplek m6reveb m6ps audiok6 m6;
#X obj -37 1079 *~;
#X obj 21 1079 *~;
#X obj -401 137 route 23 24 25 26 27 28;
#X floatatom -383 335 5 0 0 0 - - -;
#X obj -346 334 s m6ps;
#X floatatom -232 338 5 0 0 0 - - -;
#X text -249 340 m6;
#X obj -90 339 s m6;
#X floatatom -236 547 5 0 0 0 - - -;
#X text -237 371 Reveb;
#X text -254 396 r1;
#X text -254 423 r2;
#X text -254 453 r3;
#X text -255 485 r4;
#X text -255 516 r5;
#X text -255 546 r6;
#X obj -95 547 s m6reveb;
#X obj -373 75 route 2 3 4 5 6 8;
#X obj -411 531 route 14 15 16 17 18 19;
#N canvas 486 71 601 779 (subpatch) 1;
#X obj 113 111 tgl 15 0 empty empty empty 17 7 0 10 -262144 -1 -1 0
1;
#X msg 113 130 \; pd dsp \$1;
#X obj 195 112 vsl 20 50 0 1 0 0 empty empty empty 0 -9 0 10 -262144
-1 -1 0 1;
#X obj -45 -44 ctlin;
#X floatatom -45 -13 5 0 0 0 - - -;
#X floatatom 24 -12 5 0 0 0 - - -;
#X obj -45 48 list prepend;
#X obj 126 65 route 13;
#X floatatom 126 198 5 0 0 0 - - -;
#X text 125 181 Master Level;
#X obj 269 201 s master;
#X obj 215 62 r master;
#X floatatom 126 224 5 0 0 0 - - -;
#X obj 268 225 s m1;
#X text 109 223 m1;
#X floatatom 126 251 5 0 0 0 - - -;
#X text 109 250 m2;
#X obj 268 252 s m2;
#X obj -45 20 / 127;
#X floatatom 126 281 5 0 0 0 - - -;
#X text 109 280 m3;
#X obj 268 282 s m3;
#X floatatom 125 311 5 0 0 0 - - -;
#X floatatom -26 222 5 0 0 0 - - -;
#X obj 10 221 s m1ps;
#X floatatom -26 251 5 0 0 0 - - -;
#X obj 10 250 s m2ps;
#X floatatom -26 281 5 0 0 0 - - -;
#X obj 10 280 s m3ps;
#X obj 267 312 s m4;
#X text 108 313 m4;
#X floatatom -26 312 5 0 0 0 - - -;
#X obj 10 311 s m4ps;
#X floatatom 125 341 5 0 0 0 - - -;
#X text 108 343 m5;
#X obj 267 342 s m5;
#X floatatom -26 342 5 0 0 0 - - -;
#X obj 11 341 s m5ps;
#X floatatom 123 430 5 0 0 0 - - -;
#X obj 264 431 s m1reveb;
#X floatatom 122 457 5 0 0 0 - - -;
#X obj -55 442 ctlin;
#X floatatom -55 473 5 0 0 0 - - -;
#X floatatom 14 474 5 0 0 0 - - -;
#X obj -55 534 list prepend;
#X obj 264 457 s m2reveb;
#X floatatom 123 486 5 0 0 0 - - -;
#X obj 264 486 s m3reveb;
#X floatatom 122 519 5 0 0 0 - - -;
#X obj 263 519 s m4reveb;
#X floatatom 121 549 5 0 0 0 - - -;
#X obj 262 549 s m5reveb;
#X obj -44 170 route 23 24 25 26 27 28;
#X floatatom -26 368 5 0 0 0 - - -;
#X obj 11 367 s m6ps;
#X floatatom 125 371 5 0 0 0 - - -;
#X text 108 373 m6;
#X obj 267 372 s m6;
#X floatatom 121 580 5 0 0 0 - - -;
#X text 120 404 Reveb;
#X text 103 429 r1;
#X text 103 456 r2;
#X text 103 486 r3;
#X text 102 518 r4;
#X text 102 549 r5;
#X text 102 579 r6;
#X obj 262 580 s m6reveb;
#X obj -16 108 route 2 3 4 5 6 8;
#X obj -54 564 route 14 15 16 17 18 19;
#X obj 170 635 outlet l;
#X obj 198 608 outlet R;
#X connect 0 0 1 0;
#X connect 2 0 69 0;
#X connect 2 0 70 0;
#X connect 3 0 4 0;
#X connect 3 1 5 0;
#X connect 4 0 18 0;
#X connect 5 0 6 1;
#X connect 6 0 7 0;
#X connect 6 0 52 0;
#X connect 6 0 67 0;
#X connect 7 0 8 0;
#X connect 8 0 10 0;
#X connect 11 0 2 0;
#X connect 12 0 13 0;
#X connect 15 0 17 0;
#X connect 18 0 6 0;
#X connect 19 0 21 0;
#X connect 22 0 29 0;
#X connect 23 0 24 0;
#X connect 25 0 26 0;
#X connect 27 0 28 0;
#X connect 31 0 32 0;
#X connect 33 0 35 0;
#X connect 36 0 37 0;
#X connect 38 0 39 0;
#X connect 40 0 45 0;
#X connect 41 0 42 0;
#X connect 41 1 43 0;
#X connect 42 0 44 0;
#X connect 43 0 44 1;
#X connect 44 0 68 0;
#X connect 46 0 47 0;
#X connect 48 0 49 0;
#X connect 50 0 51 0;
#X connect 52 0 23 0;
#X connect 52 1 25 0;
#X connect 52 2 27 0;
#X connect 52 3 31 0;
#X connect 52 4 36 0;
#X connect 52 5 53 0;
#X connect 53 0 54 0;
#X connect 55 0 57 0;
#X connect 58 0 66 0;
#X connect 67 0 12 0;
#X connect 67 1 15 0;
#X connect 67 2 19 0;
#X connect 67 3 22 0;
#X connect 67 4 33 0;
#X connect 67 5 55 0;
#X connect 68 0 38 0;
#X connect 68 1 40 0;
#X connect 68 2 46 0;
#X connect 68 3 48 0;
#X connect 68 4 50 0;
#X connect 68 5 58 0;
#X coords 0 -1 1 1 120 500 1 100 100;
#X restore -5 -53 pd;
#X connect 0 0 1 0;
#X connect 2 0 4 0;
#X connect 3 0 4 1;
#X connect 5 0 2 1;
#X connect 5 0 3 1;
#X connect 5 0 93 1;
#X connect 5 0 94 1;
#X connect 5 0 59 1;
#X connect 5 0 60 1;
#X connect 6 0 7 0;
#X connect 6 1 8 0;
#X connect 7 0 21 0;
#X connect 8 0 9 1;
#X connect 9 0 10 0;
#X connect 9 0 95 0;
#X connect 9 0 110 0;
#X connect 10 0 11 0;
#X connect 11 0 13 0;
#X connect 14 0 5 0;
#X connect 15 0 16 0;
#X connect 18 0 20 0;
#X connect 21 0 9 0;
#X connect 22 0 24 0;
#X connect 25 0 32 0;
#X connect 26 0 27 0;
#X connect 28 0 29 0;
#X connect 30 0 31 0;
#X connect 34 0 35 0;
#X connect 36 0 38 0;
#X connect 39 0 40 0;
#X connect 41 0 42 0;
#X connect 44 0 47 0;
#X connect 45 0 46 0;
#X connect 46 0 2 0;
#X connect 46 1 3 0;
#X connect 47 0 46 0;
#X connect 48 0 46 1;
#X connect 50 0 65 0;
#X connect 51 0 74 0;
#X connect 52 0 74 1;
#X connect 53 0 58 0;
#X connect 54 0 55 0;
#X connect 54 1 56 0;
#X connect 55 0 57 0;
#X connect 56 0 57 1;
#X connect 57 0 111 0;
#X connect 59 0 4 0;
#X connect 60 0 4 1;
#X connect 62 0 72 0;
#X connect 63 0 75 0;
#X connect 64 0 75 1;
#X connect 65 0 74 0;
#X connect 66 0 67 0;
#X connect 69 0 73 0;
#X connect 70 0 76 0;
#X connect 71 0 76 1;
#X connect 72 0 75 0;
#X connect 73 0 76 0;
#X connect 74 0 2 0;
#X connect 74 1 3 0;
#X connect 75 0 59 0;
#X connect 75 1 60 0;
#X connect 76 0 59 0;
#X connect 76 1 60 0;
#X connect 77 0 78 0;
#X connect 80 0 83 0;
#X connect 81 0 84 0;
#X connect 82 0 84 1;
#X connect 83 0 84 0;
#X connect 84 0 93 0;
#X connect 84 1 94 0;
#X connect 85 0 86 0;
#X connect 88 0 91 0;
#X connect 89 0 92 0;
#X connect 90 0 92 1;
#X connect 91 0 92 0;
#X connect 92 1 94 0;
#X connect 93 0 4 0;
#X connect 94 0 4 1;
#X connect 95 0 26 0;
#X connect 95 1 28 0;
#X connect 95 2 30 0;
#X connect 95 3 34 0;
#X connect 95 4 39 0;
#X connect 95 5 96 0;
#X connect 96 0 97 0;
#X connect 98 0 100 0;
#X connect 101 0 109 0;
#X connect 110 0 15 0;
#X connect 110 1 18 0;
#X connect 110 2 22 0;
#X connect 110 3 25 0;
#X connect 110 4 36 0;
#X connect 110 5 98 0;
#X connect 111 0 41 0;
#X connect 111 1 53 0;
#X connect 111 2 66 0;
#X connect 111 3 77 0;
#X connect 111 4 85 0;
#X connect 111 5 101 0;
