#N canvas 0 22 970 674 10;
#X obj 23 29 inlet~;
#X obj 287 225 +~;
#X obj 329 225 +~;
#X obj 77 286 outlet~;
#X obj 147 286 outlet~;
#X obj 248 344 +~;
#X obj 357 345 +~;
#X obj 290 344 -~;
#X obj 397 344 -~;
#X obj 247 400 +~;
#X obj 291 401 +~;
#X obj 335 402 -~;
#X obj 374 402 -~;
#X obj 334 484 *~ 0;
#X obj 292 483 *~ 0;
#X obj 247 482 *~ 0;
#X obj 375 485 *~ 0;
#X obj 642 375 inlet;
#X obj 642 447 / 200;
#X obj 642 399 min 100;
#X obj 642 422 max 0;
#X text 296 52 "early echo" generators \, which also increase echo
density. Open one to see what they do.;
#X text 310 125 Get the outputs of the recirculating delays. Add the
inputs to two of them.;
#X text 430 323 Do a power-conserving mix of them in pairs. First combine
(1 \, 2) and (3 \, 4)...;
#X text 412 395 ...then (1 \, 3) and (2 \, 4);
#X text 456 479 The two mixing stages have a combined gain of 2 \,
so the recirculation gain is limited to 0.5.;
#X text 596 552 Put the signals back into the;
#X text 594 567 recirculating delays.;
#X text 39 306 Tap outputs from here.;
#X text 718 391 0 to 100 to control reverb;
#X text 729 406 time.;
#X text 701 374 feedback gain on a scale of;
#X obj 374 525 delwrite~ \$0loop-del4 95.945;
#X obj 335 548 delwrite~ \$0loop-del3 86.7545;
#X obj 293 571 delwrite~ \$0loop-del2 71.9345;
#X obj 248 593 delwrite~ \$0loop-del1 60;
#X obj 308 164 delread~ \$0loop-del1 70;
#X obj 350 189 delread~ \$0loop-del2 70;
#X obj 418 243 delread~ \$0loop-del4 90;
#X obj 396 218 delread~ \$0loop-del3 90;
#X obj 23 53 reverb-echo \$0echo-del1 5.43216;
#X obj 23 77 reverb-echo \$0echo-del2 8.45346;
#X obj 23 101 reverb-echo \$0echo-del3 13.4367;
#X obj 23 125 reverb-echo \$0echo-del4 21.5463;
#X obj 23 149 reverb-echo \$0echo-del5 34.3876;
#X obj 23 173 reverb-echo \$0echo-del6 55.5437;
#X connect 0 0 40 0;
#X connect 1 0 3 0;
#X connect 1 0 5 0;
#X connect 1 0 7 0;
#X connect 2 0 4 0;
#X connect 2 0 5 1;
#X connect 2 0 7 1;
#X connect 5 0 9 0;
#X connect 5 0 11 0;
#X connect 6 0 11 1;
#X connect 6 0 9 1;
#X connect 7 0 10 0;
#X connect 7 0 12 0;
#X connect 8 0 10 1;
#X connect 8 0 12 1;
#X connect 9 0 15 0;
#X connect 10 0 14 0;
#X connect 11 0 13 0;
#X connect 12 0 16 0;
#X connect 13 0 33 0;
#X connect 14 0 34 0;
#X connect 15 0 35 0;
#X connect 16 0 32 0;
#X connect 17 0 19 0;
#X connect 18 0 16 1;
#X connect 18 0 15 1;
#X connect 18 0 14 1;
#X connect 18 0 13 1;
#X connect 19 0 20 0;
#X connect 20 0 18 0;
#X connect 36 0 1 1;
#X connect 37 0 2 1;
#X connect 38 0 6 1;
#X connect 38 0 8 1;
#X connect 39 0 6 0;
#X connect 39 0 8 0;
#X connect 40 0 41 0;
#X connect 40 1 41 1;
#X connect 41 0 42 0;
#X connect 41 1 42 1;
#X connect 42 0 43 0;
#X connect 42 1 43 1;
#X connect 43 0 44 0;
#X connect 43 1 44 1;
#X connect 44 0 45 0;
#X connect 44 1 45 1;
#X connect 45 0 1 0;
#X connect 45 1 2 0;
