#N canvas 127 52 1195 874 10;
#X obj -290 -138 bng 15 250 50 0 empty empty empty 17 7 0 10 -262144
-1 -1;
#X obj -290 -111 openpanel;
#X obj -290 -17 soundfiler;
#X floatatom -268 18 10 0 0 0 - - -;
#X obj -126 168 phasor~;
#X obj -126 227 *~;
#X obj -290 61 expr 44100 / $f1;
#X floatatom -269 82 10 0 0 0 - - -;
#X obj 122 324 tgl 15 0 empty empty empty 17 7 0 10 -260097 -1 -1 1
1;
#X obj 2 241 metro 50;
#X obj 2 263 snapshot~;
#X floatatom 2 284 10 0 0 0 - - -;
#X obj 2 332 /;
#X floatatom 2 359 5 0 0 0 - - -;
#X obj 151 324 hsl 200 15 0 1 0 0 empty empty empty -2 -8 0 10 -262144
-1 -1 18976 1;
#X obj -123 110 hsl 128 15 0 127 0 0 empty empty empty -2 -8 0 10 -262144
-1 -1 91 1;
#X floatatom -126 136 5 0 0 0 - - -;
#X msg 9 161 0;
#X msg 51 162 0.5;
#X msg 33 106 0;
#X msg 62 106 1;
#X obj 6 66 t b b;
#X obj 7 14 bng 15 250 50 0 empty empty empty 17 7 0 10 -262144 -1
-1;
#X floatatom 357 131 5 0 0 0 - - -;
#X obj 380 -81 expr if ($f1>=0.0100 && $f1<0.800 \, 1 \, 0) \;;
#X floatatom 380 -51 5 0 0 0 - - -;
#X text -116 64 play >;
#X obj 352 25 bng 15 250 50 0 empty empty empty 17 7 0 10 -262144 -1
-1;
#X obj 149 133 tgl 15 0 empty empty empty 17 7 0 10 -262144 -1 -1 0
1;
#X obj -18 -62 sel 1;
#X text 38 86 pause;
#X text 13 144 stop;
#X obj -126 43 bng 15 250 50 0 empty empty empty 17 7 0 10 -262144
-1 -1;
#X obj 307 523 *~;
#X obj 347 524 *~;
#X obj 366 290 vsl 20 50 0 1 0 0 empty empty empty 0 -9 0 10 -262144
-1 -1 2701 1;
#X floatatom 118 282 0 0 100 0 - - -;
#X text -47 441 <-- feedback (100 maximum);
#X text -36 466 <-- open to see how it works;
#X obj -127 465 myreverb;
#X obj 381 -30 sel 1;
#X obj 380 -7 del 50;
#X msg -126 82 0.910668;
#X msg -191 83 set \$1;
#X obj 308 585 outlet~;
#X obj 365 586 outlet~;
#X text 115 262 reveb;
#X obj 148 22 inlet sensor;
#X obj -270 38 s \$0sampleSize1;
#X obj -87 198 r \$0sampleSize1;
#X obj 17 307 r \$0sampleSize1;
#X obj -243 -210 inlet name;
#X obj 381 -125 r \$2;
#X obj 118 245 r \$1;
#X obj 423 84 r \$4;
#X obj -153 -121 symbol \$3;
#X symbolatom -154 -93 10 0 0 0 - - -;
#X obj -151 -174 loadbang;
#X obj -152 -146 bng 15 250 50 0 empty empty empty 17 7 0 10 -262144
-1 -1;
#X obj -288 -78 pack s s;
#X msg -289 -49 read -resize \$1 \$2;
#X obj -126 267 tabread~ \$3;
#X connect 0 0 1 0;
#X connect 1 0 59 0;
#X connect 2 0 3 0;
#X connect 2 0 6 0;
#X connect 3 0 48 0;
#X connect 4 0 5 0;
#X connect 5 0 10 0;
#X connect 5 0 61 0;
#X connect 6 0 7 0;
#X connect 6 0 4 0;
#X connect 7 0 43 0;
#X connect 8 0 9 0;
#X connect 9 0 10 0;
#X connect 10 0 11 0;
#X connect 11 0 12 0;
#X connect 12 0 13 0;
#X connect 13 0 14 0;
#X connect 15 0 16 0;
#X connect 16 0 4 0;
#X connect 17 0 4 1;
#X connect 18 0 4 1;
#X connect 19 0 4 0;
#X connect 20 0 4 0;
#X connect 21 1 19 0;
#X connect 22 0 21 0;
#X connect 23 0 24 0;
#X connect 24 0 25 0;
#X connect 25 0 40 0;
#X connect 27 0 28 0;
#X connect 28 0 29 0;
#X connect 29 0 32 0;
#X connect 29 1 22 0;
#X connect 32 0 42 0;
#X connect 33 0 44 0;
#X connect 34 0 45 0;
#X connect 35 0 33 1;
#X connect 35 0 34 1;
#X connect 36 0 39 1;
#X connect 39 0 33 0;
#X connect 39 1 34 0;
#X connect 40 0 41 0;
#X connect 41 0 27 0;
#X connect 42 0 15 0;
#X connect 43 0 42 0;
#X connect 47 0 23 0;
#X connect 49 0 5 1;
#X connect 50 0 12 1;
#X connect 51 0 59 0;
#X connect 52 0 25 0;
#X connect 53 0 36 0;
#X connect 54 0 35 0;
#X connect 55 0 56 0;
#X connect 56 0 59 1;
#X connect 57 0 58 0;
#X connect 58 0 55 0;
#X connect 59 0 60 0;
#X connect 60 0 2 0;
#X connect 61 0 39 0;
#X coords 0 -1 1 1 300 250 1 100 100;
