#N canvas -26 41 1152 948 10;
#X obj -87 -52 tgl 15 0 empty empty empty 17 7 0 10 -262144 -1 -1 0
1;
#X msg -87 -33 \; pd dsp \$1;
#X obj 48 17 bng 15 250 50 0 empty empty empty 17 7 0 10 -262144 -1
-1;
#X obj 48 44 openpanel;
#X msg 49 106 read -resize \$1 audiok1;
#X obj 48 138 soundfiler;
#X floatatom 70 173 10 0 0 0 - - -;
#X obj 212 381 phasor~;
#X obj 212 418 *~;
#X obj 48 216 expr 44100 / $f1;
#X floatatom 69 237 10 0 0 0 - - -;
#X obj 451 546 tgl 15 0 empty empty empty 17 7 0 10 -262144 -1 -1 1
1;
#X obj 341 403 metro 50;
#X obj 341 425 snapshot~;
#X floatatom 341 446 10 0 0 0 - - -;
#X obj 341 494 /;
#X floatatom 341 521 5 0 0 0 - - -;
#X obj 213 519 tabread~ audiok1;
#N canvas 0 22 450 278 (subpatch) 0;
#X array audiok1 48426 float 2;
#X coords 0 1 48426 -1 200 140 1;
#X restore 478 395 graph;
#X obj 2698 902 *~;
#X obj 2738 903 *~;
#X obj 2699 939 dac~ 1 2;
#X obj 2761 782 vsl 20 50 0 1 0 0 empty empty empty 0 -9 0 10 -262144
-1 -1 3280 1;
#X obj 480 546 hsl 200 15 0 1 0 0 empty empty empty -2 -8 0 10 -262144
-1 -1 14235 1;
#X obj 216 272 hsl 128 15 0 127 0 0 empty empty empty -2 -8 0 10 -262144
-1 -1 45 1;
#X floatatom 213 298 5 0 0 0 - - -;
#X msg 376 323 0;
#X msg 418 324 0.5;
#X msg 400 268 0;
#X msg 429 268 1;
#X obj 373 228 t b b;
#X obj 380 175 bng 15 250 50 0 empty empty empty 17 7 0 10 -262144
-1 -1;
#X obj 212 -50 inlet;
#X floatatom 212 -18 5 0 0 0 - - -;
#X obj 212 1 expr if ($f1>=0.0100 && $f1<0.800 \, 1 \, 0) \;;
#X floatatom 212 31 5 0 0 0 - - -;
#X text 223 226 play >;
#X obj 212 98 bng 15 250 50 0 empty empty empty 17 7 0 10 -262144 -1
-1;
#X obj 212 122 tgl 15 0 empty empty empty 17 7 0 10 -262144 -1 -1 0
1;
#X obj 212 152 sel 1;
#X text 405 248 pause;
#X text 380 306 stop;
#X obj 213 201 bng 15 250 50 0 empty empty empty 17 7 0 10 -262144
-1 -1;
#X obj 636 685 *~;
#X obj 676 686 *~;
#X obj 699 508 vsl 20 50 0 1 0 0 empty empty empty 0 -9 0 10 -262144
-1 -1 0 1;
#X obj -230 36 ctlin;
#X floatatom -230 67 5 0 0 0 - - -;
#X floatatom -161 68 5 0 0 0 - - -;
#X obj -230 128 list prepend;
#X obj -131 155 route 13;
#X floatatom -131 245 5 0 0 0 - - -;
#X text -132 228 Master Level;
#X obj -48 248 s master;
#X obj 2761 757 r master;
#X floatatom -131 271 5 0 0 0 - - -;
#X obj -49 272 s m1;
#X text -148 270 m1;
#X obj 699 467 r m1;
#X floatatom -131 298 5 0 0 0 - - -;
#X text -148 297 m2;
#X obj -49 299 s m2;
#X obj -230 100 / 127;
#X floatatom -131 328 5 0 0 0 - - -;
#X text -148 327 m3;
#X obj -49 329 s m3;
#X floatatom -132 358 5 0 0 0 - - -;
#X floatatom -285 269 5 0 0 0 - - -;
#X obj -249 268 s m1ps;
#X floatatom -285 298 5 0 0 0 - - -;
#X obj -249 297 s m2ps;
#X obj 162 2 r m1ps;
#X obj 748 53 bng 15 250 50 0 empty empty empty 17 7 0 10 -262144 -1
-1;
#X obj 748 80 openpanel;
#X obj 748 138 soundfiler;
#X floatatom 768 166 10 0 0 0 - - -;
#X obj 912 381 phasor~;
#X obj 912 418 *~;
#X obj 748 216 expr 44100 / $f1;
#X floatatom 769 237 10 0 0 0 - - -;
#X obj 1151 546 tgl 15 0 empty empty empty 17 7 0 10 -262144 -1 -1
1 1;
#X obj 1041 403 metro 50;
#X obj 1041 425 snapshot~;
#X floatatom 1041 446 10 0 0 0 - - -;
#X obj 1041 494 /;
#X floatatom 1041 521 5 0 0 0 - - -;
#N canvas 0 22 450 278 (subpatch) 0;
#X array audiok2 573434 float 2;
#X coords 0 1 573434 -1 200 140 1 0 0;
#X restore 1178 395 graph;
#X obj 1180 546 hsl 200 15 0 1 0 0 empty empty empty -2 -8 0 10 -262144
-1 -1 15812 1;
#X obj 916 272 hsl 128 15 0 127 0 0 empty empty empty -2 -8 0 10 -262144
-1 -1 8 1;
#X floatatom 913 298 5 0 0 0 - - -;
#X msg 1076 323 0;
#X msg 1118 324 0.5;
#X msg 1100 268 0;
#X msg 1129 268 1;
#X obj 1073 228 t b b;
#X obj 1073 185 bng 15 250 50 0 empty empty empty 17 7 0 10 -262144
-1 -1;
#X obj 912 -50 inlet;
#X floatatom 912 -18 5 0 0 0 - - -;
#X obj 912 1 expr if ($f1>=0.0100 && $f1<0.800 \, 1 \, 0) \;;
#X floatatom 912 31 5 0 0 0 - - -;
#X obj 912 66 spigot;
#X text 923 226 play >;
#X obj 912 98 bng 15 250 50 0 empty empty empty 17 7 0 10 -262144 -1
-1;
#X obj 912 122 tgl 15 0 empty empty empty 17 7 0 10 -262144 -1 -1 0
1;
#X obj 912 152 sel 1;
#X text 1105 248 pause;
#X text 1080 306 stop;
#X obj 912 181 bng 15 250 50 0 empty empty empty 17 7 0 10 -262144
-1 -1;
#X obj 1336 685 *~;
#X obj 1376 686 *~;
#X obj 1399 508 vsl 20 50 0 1 0 0 empty empty empty 0 -9 0 10 -262144
-1 -1 1775 1;
#X obj 862 2 r m2ps;
#X msg 748 107 read -resize \$1 audiok2;
#X obj 913 519 tabread~ audiok2;
#X obj 1399 467 r m2;
#X msg 913 244 0.0769051;
#X obj 243 401 r sampleSize1;
#X obj 356 469 r sampleSize1;
#X obj 943 401 r sampleSize2;
#X obj 1056 469 r sampleSize2;
#X obj 68 193 s sampleSize1;
#X obj 768 193 s sampleSize2;
#X obj 1438 53 bng 15 250 50 0 empty empty empty 17 7 0 10 -262144
-1 -1;
#X obj 1438 80 openpanel;
#X obj 1438 138 soundfiler;
#X floatatom 1458 166 10 0 0 0 - - -;
#X obj 1602 381 phasor~;
#X obj 1602 418 *~;
#X obj 1438 216 expr 44100 / $f1;
#X floatatom 1459 237 10 0 0 0 - - -;
#X obj 1841 546 tgl 15 0 empty empty empty 17 7 0 10 -262144 -1 -1
0 1;
#X obj 1731 403 metro 50;
#X obj 1731 425 snapshot~;
#X floatatom 1731 446 10 0 0 0 - - -;
#X obj 1731 494 /;
#X floatatom 1731 521 5 0 0 0 - - -;
#N canvas 0 22 450 278 (subpatch) 0;
#X array audiok3 108285 float 2;
#X coords 0 1 108285 -1 200 140 1 0 0;
#X restore 1868 395 graph;
#X obj 1870 546 hsl 200 15 0 1 0 0 empty empty empty -2 -8 0 10 -262144
-1 -1 0 1;
#X obj 1606 272 hsl 128 15 0 127 0 0 empty empty empty -2 -8 0 10 -262144
-1 -1 0 1;
#X floatatom 1603 298 5 0 0 0 - - -;
#X msg 1766 323 0;
#X msg 1808 324 0.5;
#X msg 1790 268 0;
#X msg 1819 268 1;
#X obj 1763 228 t b b;
#X obj 1763 185 bng 15 250 50 0 empty empty empty 17 7 0 10 -262144
-1 -1;
#X obj 1602 -50 inlet;
#X floatatom 1602 -18 5 0 0 0 - - -;
#X obj 1602 1 expr if ($f1>=0.0100 && $f1<0.800 \, 1 \, 0) \;;
#X floatatom 1602 31 5 0 0 0 - - -;
#X obj 1602 66 spigot;
#X text 1613 226 play >;
#X obj 1602 98 bng 15 250 50 0 empty empty empty 17 7 0 10 -262144
-1 -1;
#X obj 1602 122 tgl 15 0 empty empty empty 17 7 0 10 -262144 -1 -1
0 1;
#X obj 1602 152 sel 1;
#X text 1795 248 pause;
#X text 1770 306 stop;
#X obj 1602 181 bng 15 250 50 0 empty empty empty 17 7 0 10 -262144
-1 -1;
#X obj 2026 685 *~;
#X obj 2066 686 *~;
#X obj 2089 508 vsl 20 50 0 1 0 0 empty empty empty 0 -9 0 10 -262144
-1 -1 0 1;
#X msg 1438 107 read -resize \$1 audiok3;
#X obj 1458 193 s sampleSize3;
#X obj 1552 2 r m3ps;
#X obj 1633 401 r sampleSize3;
#X obj 1602 520 tabread~ audiok3;
#X obj 1746 469 r sampleSize3;
#X obj 2089 467 r m3;
#X floatatom -285 328 5 0 0 0 - - -;
#X obj -249 327 s m3ps;
#X obj -50 359 s m4;
#X msg 1603 244 0.384019;
#X obj 2118 52 bng 15 250 50 0 empty empty empty 17 7 0 10 -262144
-1 -1;
#X obj 2118 79 openpanel;
#X obj 2118 137 soundfiler;
#X floatatom 2138 165 10 0 0 0 - - -;
#X obj 2282 380 phasor~;
#X obj 2282 417 *~;
#X obj 2118 215 expr 44100 / $f1;
#X floatatom 2139 236 10 0 0 0 - - -;
#X obj 2521 545 tgl 15 0 empty empty empty 17 7 0 10 -262144 -1 -1
0 1;
#X obj 2411 402 metro 50;
#X obj 2411 424 snapshot~;
#X floatatom 2411 445 10 0 0 0 - - -;
#X obj 2411 493 /;
#X floatatom 2411 520 5 0 0 0 - - -;
#N canvas 0 22 450 278 (subpatch) 0;
#X array audiok4 108285 float 2;
#X coords 0 1 108285 -1 200 140 1 0 0;
#X restore 2548 394 graph;
#X obj 2550 545 hsl 200 15 0 1 0 0 empty empty empty -2 -8 0 10 -262144
-1 -1 0 1;
#X obj 2286 271 hsl 128 15 0 127 0 0 empty empty empty -2 -8 0 10 -262144
-1 -1 0 1;
#X floatatom 2283 297 5 0 0 0 - - -;
#X msg 2446 322 0;
#X msg 2488 323 0.5;
#X msg 2470 267 0;
#X msg 2499 267 1;
#X obj 2443 227 t b b;
#X obj 2443 184 bng 15 250 50 0 empty empty empty 17 7 0 10 -262144
-1 -1;
#X obj 2282 -51 inlet;
#X floatatom 2282 -19 5 0 0 0 - - -;
#X obj 2282 0 expr if ($f1>=0.0100 && $f1<0.800 \, 1 \, 0) \;;
#X floatatom 2282 30 5 0 0 0 - - -;
#X obj 2282 65 spigot;
#X text 2293 225 play >;
#X obj 2282 97 bng 15 250 50 0 empty empty empty 17 7 0 10 -262144
-1 -1;
#X obj 2282 121 tgl 15 0 empty empty empty 17 7 0 10 -262144 -1 -1
0 1;
#X obj 2282 151 sel 1;
#X text 2475 247 pause;
#X text 2450 305 stop;
#X obj 2282 180 bng 15 250 50 0 empty empty empty 17 7 0 10 -262144
-1 -1;
#X obj 2706 684 *~;
#X obj 2746 685 *~;
#X obj 2769 507 vsl 20 50 0 1 0 0 empty empty empty 0 -9 0 10 -262144
-1 -1 0 1;
#X msg 2283 243 0.384019;
#X obj 2232 1 r m4ps;
#X msg 2118 106 read -resize \$1 audiok4;
#X obj 2138 192 s sampleSize4;
#X obj 2313 400 r sampleSize4;
#X obj 2282 519 tabread~ audiok4;
#X obj 2426 468 r sampleSize4;
#X obj 2769 466 r m4;
#X text -149 360 m4;
#X floatatom -285 359 5 0 0 0 - - -;
#X obj -249 358 s m4ps;
#X obj 2798 52 bng 15 250 50 0 empty empty empty 17 7 0 10 -262144
-1 -1;
#X obj 2798 79 openpanel;
#X obj 2798 137 soundfiler;
#X floatatom 2818 165 10 0 0 0 - - -;
#X obj 2962 380 phasor~;
#X obj 2962 417 *~;
#X obj 2798 215 expr 44100 / $f1;
#X floatatom 2819 236 10 0 0 0 - - -;
#X obj 3201 545 tgl 15 0 empty empty empty 17 7 0 10 -262144 -1 -1
0 1;
#X obj 3091 402 metro 50;
#X obj 3091 424 snapshot~;
#X floatatom 3091 445 10 0 0 0 - - -;
#X obj 3091 493 /;
#X floatatom 3091 520 5 0 0 0 - - -;
#N canvas 0 22 450 278 (subpatch) 0;
#X array audiok5 108285 float 2;
#X coords 0 1 108285 -1 200 140 1 0 0;
#X restore 3225 385 graph;
#X obj 3230 545 hsl 200 15 0 1 0 0 empty empty empty -2 -8 0 10 -262144
-1 -1 0 1;
#X obj 2966 271 hsl 128 15 0 127 0 0 empty empty empty -2 -8 0 10 -262144
-1 -1 0 1;
#X floatatom 2963 297 5 0 0 0 - - -;
#X msg 3126 322 0;
#X msg 3168 323 0.5;
#X msg 3150 267 0;
#X msg 3179 267 1;
#X obj 3123 227 t b b;
#X obj 3123 184 bng 15 250 50 0 empty empty empty 17 7 0 10 -262144
-1 -1;
#X floatatom 2962 -19 5 0 0 0 - - -;
#X obj 2962 0 expr if ($f1>=0.0100 && $f1<0.800 \, 1 \, 0) \;;
#X floatatom 2962 30 5 0 0 0 - - -;
#X obj 2962 65 spigot;
#X text 2973 225 play >;
#X obj 2962 97 bng 15 250 50 0 empty empty empty 17 7 0 10 -262144
-1 -1;
#X obj 2962 121 tgl 15 0 empty empty empty 17 7 0 10 -262144 -1 -1
0 1;
#X obj 2962 151 sel 1;
#X text 3155 247 pause;
#X text 3130 305 stop;
#X obj 2962 180 bng 15 250 50 0 empty empty empty 17 7 0 10 -262144
-1 -1;
#X obj 3386 684 *~;
#X obj 3426 685 *~;
#X obj 3449 507 vsl 20 50 0 1 0 0 empty empty empty 0 -9 0 10 -262144
-1 -1 0 1;
#X msg 2963 243 0.384019;
#X msg 2798 106 read -resize \$1 audiok5;
#X obj 2818 192 s sampleSize5;
#X obj 2912 1 r m5ps;
#X obj 2993 400 r sampleSize5;
#X obj 2962 519 tabread~ audiok5;
#X obj 3106 468 r sampleSize5;
#X obj 3449 466 r m5;
#X floatatom -132 388 5 0 0 0 - - -;
#X text -149 390 m5;
#X obj -50 389 s m5;
#X floatatom -285 389 5 0 0 0 - - -;
#X obj -248 388 s m5ps;
#X obj -307 218 route 23 24 25 26 27;
#X obj -232 192 route 2 3 4 5 6;
#X obj -92 64 loadbang;
#X msg -92 89 symbol ruidog1.wav;
#X floatatom 253 603 0 0 100 0 - - -;
#X text 288 603 <-- feedback (100 maximum);
#X text 268 628 <-- open to see how it works;
#X obj -215 503 route 14;
#X floatatom -205 569 5 0 0 0 - - -;
#X obj -169 568 s m1reveb;
#X obj -205 535 * 100;
#X obj 254 578 r m1reveb;
#X obj 177 627 myreverb;
#X msg 213 244 0.45;
#X obj 213 52 sel 1;
#X obj 212 75 del 50;
#X floatatom 3082 663 5 0 0 0 - - -;
#X obj 2962 -50 inlet;
#X connect 0 0 1 0;
#X connect 2 0 3 0;
#X connect 3 0 4 0;
#X connect 4 0 5 0;
#X connect 5 0 6 0;
#X connect 5 0 9 0;
#X connect 6 0 120 0;
#X connect 7 0 8 0;
#X connect 8 0 13 0;
#X connect 8 0 17 0;
#X connect 9 0 10 0;
#X connect 9 0 7 0;
#X connect 11 0 12 0;
#X connect 12 0 13 0;
#X connect 13 0 14 0;
#X connect 14 0 15 0;
#X connect 15 0 16 0;
#X connect 16 0 23 0;
#X connect 17 0 285 0;
#X connect 19 0 21 0;
#X connect 20 0 21 1;
#X connect 22 0 19 1;
#X connect 22 0 20 1;
#X connect 24 0 25 0;
#X connect 25 0 7 0;
#X connect 26 0 7 1;
#X connect 27 0 7 1;
#X connect 28 0 7 0;
#X connect 29 0 7 0;
#X connect 30 1 28 0;
#X connect 31 0 30 0;
#X connect 32 0 33 0;
#X connect 33 0 34 0;
#X connect 34 0 35 0;
#X connect 35 0 287 0;
#X connect 37 0 38 0;
#X connect 38 0 39 0;
#X connect 39 0 42 0;
#X connect 39 1 31 0;
#X connect 42 0 286 0;
#X connect 43 0 19 0;
#X connect 44 0 20 0;
#X connect 45 0 43 1;
#X connect 45 0 44 1;
#X connect 46 0 47 0;
#X connect 46 1 48 0;
#X connect 47 0 62 0;
#X connect 48 0 49 1;
#X connect 49 0 50 0;
#X connect 49 0 273 0;
#X connect 49 0 274 0;
#X connect 49 0 280 0;
#X connect 50 0 51 0;
#X connect 51 0 53 0;
#X connect 54 0 22 0;
#X connect 55 0 56 0;
#X connect 58 0 45 0;
#X connect 59 0 61 0;
#X connect 62 0 49 0;
#X connect 63 0 65 0;
#X connect 66 0 170 0;
#X connect 67 0 68 0;
#X connect 69 0 70 0;
#X connect 71 0 35 0;
#X connect 72 0 73 0;
#X connect 73 0 112 0;
#X connect 74 0 75 0;
#X connect 74 0 78 0;
#X connect 75 0 121 0;
#X connect 76 0 77 0;
#X connect 77 0 82 0;
#X connect 77 0 113 0;
#X connect 78 0 79 0;
#X connect 78 0 76 0;
#X connect 80 0 81 0;
#X connect 81 0 82 0;
#X connect 82 0 83 0;
#X connect 83 0 84 0;
#X connect 84 0 85 0;
#X connect 85 0 87 0;
#X connect 88 0 89 0;
#X connect 89 0 76 0;
#X connect 90 0 76 1;
#X connect 91 0 76 1;
#X connect 92 0 76 0;
#X connect 93 0 76 0;
#X connect 94 1 92 0;
#X connect 95 0 94 0;
#X connect 96 0 97 0;
#X connect 97 0 98 0;
#X connect 98 0 99 0;
#X connect 99 0 100 0;
#X connect 99 0 100 1;
#X connect 100 0 102 0;
#X connect 102 0 103 0;
#X connect 103 0 104 0;
#X connect 104 0 107 0;
#X connect 104 1 95 0;
#X connect 107 0 115 0;
#X connect 108 0 19 0;
#X connect 109 0 20 0;
#X connect 110 0 108 1;
#X connect 110 0 109 1;
#X connect 111 0 99 0;
#X connect 112 0 74 0;
#X connect 113 0 108 0;
#X connect 113 0 109 0;
#X connect 114 0 110 0;
#X connect 115 0 88 0;
#X connect 116 0 8 1;
#X connect 117 0 15 1;
#X connect 118 0 77 1;
#X connect 119 0 84 1;
#X connect 122 0 123 0;
#X connect 123 0 161 0;
#X connect 124 0 125 0;
#X connect 124 0 128 0;
#X connect 125 0 162 0;
#X connect 126 0 127 0;
#X connect 127 0 132 0;
#X connect 127 0 165 0;
#X connect 128 0 129 0;
#X connect 128 0 126 0;
#X connect 130 0 131 0;
#X connect 131 0 132 0;
#X connect 132 0 133 0;
#X connect 133 0 134 0;
#X connect 134 0 135 0;
#X connect 135 0 137 0;
#X connect 138 0 139 0;
#X connect 139 0 126 0;
#X connect 140 0 126 1;
#X connect 141 0 126 1;
#X connect 142 0 126 0;
#X connect 143 0 126 0;
#X connect 144 1 142 0;
#X connect 145 0 144 0;
#X connect 146 0 147 0;
#X connect 147 0 148 0;
#X connect 148 0 149 0;
#X connect 149 0 150 0;
#X connect 149 0 150 1;
#X connect 150 0 152 0;
#X connect 152 0 153 0;
#X connect 153 0 154 0;
#X connect 154 0 157 0;
#X connect 154 1 145 0;
#X connect 157 0 171 0;
#X connect 158 0 19 0;
#X connect 159 0 20 0;
#X connect 160 0 158 1;
#X connect 160 0 159 1;
#X connect 161 0 124 0;
#X connect 163 0 149 0;
#X connect 164 0 127 1;
#X connect 165 0 158 0;
#X connect 165 0 159 0;
#X connect 166 0 134 1;
#X connect 167 0 160 0;
#X connect 168 0 169 0;
#X connect 171 0 138 0;
#X connect 172 0 173 0;
#X connect 173 0 213 0;
#X connect 174 0 175 0;
#X connect 174 0 178 0;
#X connect 175 0 214 0;
#X connect 176 0 177 0;
#X connect 177 0 182 0;
#X connect 177 0 216 0;
#X connect 178 0 179 0;
#X connect 178 0 176 0;
#X connect 180 0 181 0;
#X connect 181 0 182 0;
#X connect 182 0 183 0;
#X connect 183 0 184 0;
#X connect 184 0 185 0;
#X connect 185 0 187 0;
#X connect 188 0 189 0;
#X connect 189 0 176 0;
#X connect 190 0 176 1;
#X connect 191 0 176 1;
#X connect 192 0 176 0;
#X connect 193 0 176 0;
#X connect 194 1 192 0;
#X connect 195 0 194 0;
#X connect 196 0 197 0;
#X connect 197 0 198 0;
#X connect 198 0 199 0;
#X connect 199 0 200 0;
#X connect 199 0 200 1;
#X connect 200 0 202 0;
#X connect 202 0 203 0;
#X connect 203 0 204 0;
#X connect 204 0 207 0;
#X connect 204 1 195 0;
#X connect 207 0 211 0;
#X connect 208 0 19 0;
#X connect 209 0 20 0;
#X connect 210 0 208 1;
#X connect 210 0 209 1;
#X connect 211 0 188 0;
#X connect 212 0 199 0;
#X connect 213 0 174 0;
#X connect 215 0 177 1;
#X connect 216 0 208 0;
#X connect 216 0 209 0;
#X connect 217 0 184 1;
#X connect 218 0 210 0;
#X connect 220 0 221 0;
#X connect 222 0 223 0;
#X connect 223 0 261 0;
#X connect 224 0 225 0;
#X connect 224 0 228 0;
#X connect 225 0 262 0;
#X connect 226 0 227 0;
#X connect 227 0 232 0;
#X connect 227 0 265 0;
#X connect 228 0 229 0;
#X connect 228 0 226 0;
#X connect 230 0 231 0;
#X connect 231 0 232 0;
#X connect 232 0 233 0;
#X connect 233 0 234 0;
#X connect 234 0 235 0;
#X connect 235 0 237 0;
#X connect 238 0 239 0;
#X connect 239 0 226 0;
#X connect 240 0 226 1;
#X connect 241 0 226 1;
#X connect 242 0 226 0;
#X connect 243 0 226 0;
#X connect 244 1 242 0;
#X connect 245 0 244 0;
#X connect 246 0 247 0;
#X connect 247 0 248 0;
#X connect 248 0 249 0;
#X connect 248 0 249 1;
#X connect 249 0 251 0;
#X connect 251 0 252 0;
#X connect 252 0 253 0;
#X connect 253 0 256 0;
#X connect 253 1 245 0;
#X connect 256 0 260 0;
#X connect 259 0 257 1;
#X connect 259 0 258 1;
#X connect 260 0 238 0;
#X connect 261 0 224 0;
#X connect 263 0 248 0;
#X connect 264 0 227 1;
#X connect 265 0 257 0;
#X connect 265 0 258 0;
#X connect 266 0 234 1;
#X connect 267 0 259 0;
#X connect 268 0 270 0;
#X connect 271 0 272 0;
#X connect 273 0 67 0;
#X connect 273 1 69 0;
#X connect 273 2 168 0;
#X connect 273 3 220 0;
#X connect 273 4 271 0;
#X connect 274 0 55 0;
#X connect 274 1 59 0;
#X connect 274 2 63 0;
#X connect 274 3 66 0;
#X connect 274 4 268 0;
#X connect 275 0 276 0;
#X connect 276 0 4 0;
#X connect 277 0 285 1;
#X connect 280 0 283 0;
#X connect 281 0 282 0;
#X connect 283 0 281 0;
#X connect 284 0 277 0;
#X connect 285 0 43 0;
#X connect 285 1 44 0;
#X connect 286 0 24 0;
#X connect 287 0 288 0;
#X connect 288 0 37 0;
#X connect 290 0 246 0;
