#N canvas 300 118 1088 939 10;
#X floatatom -362 -172 15 0 0 0 - - -;
#X obj -388 -251 openpanel;
#X obj -362 -148 s sampleSize;
#X obj -388 -121 expr 44100 / $f1;
#X floatatom -359 -97 10 0 0 0 - - -;
#X obj -648 -287 tgl 15 0 empty empty empty 17 7 0 10 -262144 -1 -1
0 1;
#X msg -648 -259 \; pd dsp \$1;
#X obj -388 -281 bng 15 250 50 0 empty empty empty 17 7 0 10 -262144
-1 -1;
#X obj -202 107 phasor~;
#X msg 59 80 0;
#X obj -202 151 *~;
#X obj -157 131 r sampleSize;
#X msg 3 -17 0;
#X msg 35 -17 1;
#X msg 97 90 0.5;
#X obj -195 8 hsl 128 15 -1 1 0 0 empty empty empty -2 -8 0 10 -262144
-1 -1 12133 1;
#X floatatom -200 31 5 0 0 0 - - -;
#X obj -22 123 tgl 15 0 empty empty empty 17 7 0 10 -262144 -1 -1 1
1;
#X obj -22 145 metro 50;
#X obj -22 170 snapshot~;
#X floatatom -21 200 10 0 0 0 - - -;
#X obj 3 -76 bng 15 250 50 0 empty empty empty 17 7 0 10 -262144 -1
-1;
#X obj 3 -45 t b b;
#X obj -21 238 /;
#X obj 8 221 r sampleSize;
#X floatatom -21 267 5 0 0 0 - - -;
#X obj -88 270 vsl 25 50 0 1 0 0 empty empty empty 0 -9 0 10 -262144
-1 -1 0 1;
#X obj -130 356 *~;
#X obj -189 357 *~;
#X obj 33 461 hsl 198 15 0 1 0 0 empty empty empty -2 -8 0 10 -262144
-1 -1 5128 1;
#X floatatom -198 -272 5 0 0 0 - - -;
#X floatatom -198 -179 5 0 0 0 - - -;
#X obj -198 -154 spigot;
#X obj -198 -132 bng 15 250 50 0 empty empty empty 17 7 0 10 -262144
-1 -1;
#X text -125 -19 Play i>;
#X text 24 -76 Stop;
#X text -32 -17 Pause;
#X obj 164 686 +~;
#X obj -198 -295 inlet;
#X msg -388 -227 read -resize \$1 audiok1;
#X obj -202 235 tabread4~ audiok1;
#X obj -198 -207 expr if($f1>=0.100 && $f1<0.800 \, 1 \, 0) \;;
#X msg -198 -18 0.910668;
#X obj -406 -271 cnv 15 10 1000 empty empty empty 20 12 0 14 -99865
-66577 0;
#X obj 283 -271 cnv 15 10 1000 empty empty empty 20 12 0 14 -258113
-66577 0;
#X obj 964 -269 cnv 15 10 1000 empty empty empty 20 12 0 14 -260097
-66577 0;
#X obj 1630 -271 cnv 15 10 1000 empty empty empty 20 12 0 14 -257985
-66577 0;
#X obj 2303 -272 cnv 15 10 1000 empty empty empty 20 12 0 14 -4034
-66577 0;
#X obj 2974 -275 cnv 15 10 1000 empty empty empty 20 12 0 14 -4032
-66577 0;
#X obj 2318 520 cnv 15 650 10 empty empty empty 20 12 0 14 -159808
-66577 0;
#X text -389 -24 A1;
#X obj -198 -104 tgl 15 0 empty empty empty 17 7 0 10 -262144 -1 -1
0 1;
#X obj -197 -75 sel 1;
#X obj -198 -46 bng 15 250 50 0 empty empty empty 17 7 0 10 -262144
-1 -1;
#X obj -619 -109 ctlin;
#X floatatom -619 -76 5 0 0 0 - - -;
#X floatatom -585 -77 5 0 0 0 - - -;
#X obj -619 -46 list prepend;
#X obj -711 -6 print;
#X floatatom -621 143 5 0 0 0 - - -;
#X floatatom -622 227 5 0 0 0 - - -;
#X floatatom -622 256 5 0 0 0 - - -;
#X floatatom -622 282 5 0 0 0 - - -;
#X floatatom -622 310 5 0 0 0 - - -;
#X floatatom -622 340 5 0 0 0 - - -;
#X floatatom -620 95 5 0 0 2 Master_Level - -;
#X obj -509 145 s m1a0;
#X obj -88 242 r m1a0;
#X floatatom -545 144 5 0 0 0 - - -;
#X obj -584 143 / 127;
#X floatatom -544 96 5 0 0 0 - - -;
#X obj -583 95 / 127;
#X obj -508 97 s master;
#X obj 237 524 r master;
#X obj 237 552 vsl 25 50 0 1 0 0 empty empty empty 0 -9 0 10 -262144
-1 -1 3935 1;
#X obj 188 633 *~;
#X obj 138 633 *~;
#X floatatom -709 96 5 0 0 0 - - -;
#X obj -514 171 s m1a0pp;
#X obj -710 120 / 127;
#N canvas 0 22 450 278 (subpatch) 0;
#X array audiok1 48426 float 2;
#X coords 0 1 48426 -1 200 140 1;
#X restore 32 310 graph;
#X floatatom 338 -162 15 0 0 0 - - -;
#X obj 312 -241 openpanel;
#X obj 338 -138 s sampleSize;
#X obj 312 -111 expr 44100 / $f1;
#X floatatom 341 -87 10 0 0 0 - - -;
#X obj 312 -271 bng 15 250 50 0 empty empty empty 17 7 0 10 -262144
-1 -1;
#X obj 498 117 phasor~;
#X msg 759 90 0;
#X obj 498 161 *~;
#X obj 543 141 r sampleSize;
#X msg 703 -7 0;
#X msg 735 -7 1;
#X msg 797 100 0.5;
#X obj 505 18 hsl 128 15 -1 1 0 0 empty empty empty -2 -8 0 10 -262144
-1 -1 6838 1;
#X floatatom 500 41 5 0 0 0 - - -;
#X obj 678 133 tgl 15 0 empty empty empty 17 7 0 10 -262144 -1 -1 1
1;
#X obj 678 155 metro 50;
#X obj 678 180 snapshot~;
#X floatatom 679 210 10 0 0 0 - - -;
#X obj 703 -66 bng 15 250 50 0 empty empty empty 17 7 0 10 -262144
-1 -1;
#X obj 703 -35 t b b;
#X obj 679 248 /;
#X obj 708 231 r sampleSize;
#X floatatom 679 277 5 0 0 0 - - -;
#X obj 612 280 vsl 25 50 0 1 0 0 empty empty empty 0 -9 0 10 -262144
-1 -1 0 1;
#X obj 570 366 *~;
#X obj 511 367 *~;
#X obj 733 471 hsl 198 15 0 1 0 0 empty empty empty -2 -8 0 10 -262144
-1 -1 3336 1;
#X floatatom 502 -262 5 0 0 0 - - -;
#X floatatom 502 -169 5 0 0 0 - - -;
#X obj 502 -144 spigot;
#X obj 502 -122 bng 15 250 50 0 empty empty empty 17 7 0 10 -262144
-1 -1;
#X text 575 -9 Play i>;
#X text 724 -66 Stop;
#X text 668 -7 Pause;
#X obj 502 -285 inlet;
#X obj 502 -197 expr if($f1>=0.100 && $f1<0.800 \, 1 \, 0) \;;
#X obj 502 -94 tgl 15 0 empty empty empty 17 7 0 10 -262144 -1 -1 0
1;
#X obj 503 -65 sel 1;
#X obj 502 -36 bng 15 250 50 0 empty empty empty 17 7 0 10 -262144
-1 -1;
#X obj 431 -189 r m1a0pp;
#N canvas 0 22 450 278 (subpatch) 0;
#X array audiok2 573434 float 2;
#X coords 0 1 573434 -1 200 140 1 0 0;
#X restore 734 320 graph;
#X floatatom -528 224 5 0 0 0 - - -;
#X obj -567 223 / 127;
#X msg 312 -217 read -resize \$1 audiok2;
#X obj -388 -200 soundfiler;
#X obj 312 -190 soundfiler;
#X text 311 -14 A2;
#X msg 502 -8 0.0769051;
#X obj -269 -199 r m1onof;
#X obj -710 195 s m1onof;
#X obj -619 53 route 2 3 4 5 6 8 13 14 23 24 25;
#X obj 158 749 dac~;
#X obj -642 369 cnv 15 200 300 empty empty empty 20 12 0 14 -233017
-66577 0;
#X obj -611 23 route 23 24 25;
#X obj -537 -22 route 14 24 25;
#X floatatom -487 10 5 0 0 0 - - -;
#X obj -492 225 s m2a1;
#X obj 612 252 r m2a1;
#X obj 502 214 tabread4~ audiok2;
#X connect 0 0 2 0;
#X connect 1 0 39 0;
#X connect 3 0 4 0;
#X connect 3 0 8 0;
#X connect 5 0 6 0;
#X connect 7 0 1 0;
#X connect 8 0 10 0;
#X connect 9 0 8 1;
#X connect 10 0 19 0;
#X connect 10 0 40 0;
#X connect 11 0 10 1;
#X connect 12 0 8 0;
#X connect 13 0 8 0;
#X connect 14 0 8 1;
#X connect 15 0 16 0;
#X connect 16 0 8 0;
#X connect 17 0 18 0;
#X connect 18 0 19 0;
#X connect 19 0 20 0;
#X connect 20 0 23 0;
#X connect 21 0 22 0;
#X connect 22 1 12 0;
#X connect 23 0 25 0;
#X connect 24 0 23 1;
#X connect 25 0 29 0;
#X connect 26 0 28 1;
#X connect 26 0 27 1;
#X connect 27 0 75 0;
#X connect 28 0 76 0;
#X connect 30 0 41 0;
#X connect 31 0 32 1;
#X connect 31 0 32 0;
#X connect 32 0 33 0;
#X connect 33 0 51 0;
#X connect 37 0 133 0;
#X connect 37 0 133 1;
#X connect 38 0 30 0;
#X connect 39 0 126 0;
#X connect 40 0 28 0;
#X connect 40 0 27 0;
#X connect 41 0 31 0;
#X connect 42 0 15 0;
#X connect 51 0 52 0;
#X connect 52 0 53 0;
#X connect 52 1 21 0;
#X connect 53 0 42 0;
#X connect 54 0 55 0;
#X connect 54 1 56 0;
#X connect 55 0 57 0;
#X connect 56 0 57 1;
#X connect 57 0 58 0;
#X connect 57 0 132 0;
#X connect 57 0 135 0;
#X connect 57 0 136 0;
#X connect 59 0 69 0;
#X connect 60 0 124 0;
#X connect 65 0 71 0;
#X connect 67 0 26 0;
#X connect 68 0 66 0;
#X connect 69 0 68 0;
#X connect 70 0 72 0;
#X connect 71 0 70 0;
#X connect 73 0 74 0;
#X connect 74 0 76 1;
#X connect 74 0 75 1;
#X connect 75 0 37 1;
#X connect 76 0 37 0;
#X connect 77 0 79 0;
#X connect 79 0 131 0;
#X connect 81 0 83 0;
#X connect 82 0 125 0;
#X connect 84 0 85 0;
#X connect 84 0 87 0;
#X connect 86 0 82 0;
#X connect 87 0 89 0;
#X connect 88 0 87 1;
#X connect 89 0 98 0;
#X connect 89 0 140 0;
#X connect 90 0 89 1;
#X connect 91 0 87 0;
#X connect 92 0 87 0;
#X connect 93 0 87 1;
#X connect 94 0 95 0;
#X connect 95 0 87 0;
#X connect 96 0 97 0;
#X connect 97 0 98 0;
#X connect 98 0 99 0;
#X connect 99 0 102 0;
#X connect 100 0 101 0;
#X connect 101 1 91 0;
#X connect 102 0 104 0;
#X connect 103 0 102 1;
#X connect 104 0 108 0;
#X connect 105 0 107 1;
#X connect 105 0 106 1;
#X connect 106 0 75 0;
#X connect 107 0 76 0;
#X connect 109 0 117 0;
#X connect 110 0 111 1;
#X connect 110 0 111 0;
#X connect 111 0 112 0;
#X connect 112 0 118 0;
#X connect 116 0 109 0;
#X connect 117 0 110 0;
#X connect 118 0 119 0;
#X connect 119 0 120 0;
#X connect 119 1 100 0;
#X connect 120 0 129 0;
#X connect 121 0 110 0;
#X connect 123 0 138 0;
#X connect 124 0 123 0;
#X connect 125 0 127 0;
#X connect 126 0 0 0;
#X connect 126 0 3 0;
#X connect 127 0 81 0;
#X connect 127 0 84 0;
#X connect 129 0 94 0;
#X connect 130 0 31 0;
#X connect 132 0 59 0;
#X connect 132 1 60 0;
#X connect 132 2 61 0;
#X connect 132 3 62 0;
#X connect 132 4 63 0;
#X connect 132 5 64 0;
#X connect 132 6 65 0;
#X connect 135 0 77 0;
#X connect 136 0 137 0;
#X connect 139 0 105 0;
#X connect 140 0 107 0;
#X connect 140 0 106 0;
